<svg id="Layer_1" data-name="Layer 1" xmlns="http://www.w3.org/2000/svg" viewBox="0 0 500 500"><defs><style>.cls-1{fill:#d9d9d9;}</style></defs><title>africa</title><path class="cls-1" d="M207.11,35a11,11,0,0,1-2.83,1.93,11.94,11.94,0,0,1-3.41-.83c-2.2-.74-2.9-.84-3.63-.57a1.71,1.71,0,0,1-1.5,0c-1-.53-1.54-.4-1.94.5-.3.67-.63.83-1.53.83s-1.2.17-1.37.67c-.27.84-.43.84-2.2-.13-1.3-.7-2-.8-6.21-1l-4.73-.17-1.1,1.07c-1.1,1.07-1.2,1.1-4.77,1.27-4.37.2-6,.8-6.37,2.17-.4,1.63-.77,1.83-2.7,1.6a8.36,8.36,0,0,0-7.18,2.5c-1.46,1.4-2,1.67-3,1.67a7.49,7.49,0,0,1-2.5-.54c-1.47-.6-5.44-.36-7.54.47-1.17.47-1.37.47-2.37-.07a13.33,13.33,0,0,1-2.67-2.4,5.52,5.52,0,0,0-2.13-1.8c-.84,0-1.64,1.3-1.9,3.07-.34,2.23-4.07,8.31-6,9.81a27.7,27.7,0,0,1-7.74,3.13A13.76,13.76,0,0,0,115,60.16c-.73.6-.77,1.76-.13,3,.4.8.4,1.27,0,3a7.6,7.6,0,0,1-1,2.7c-.73.8-.66,3,.14,4.2a4.84,4.84,0,0,1-.17,5.21c-.43.63-1.23,1.73-1.73,2.5a27.06,27.06,0,0,1-7.48,6.64,9.91,9.91,0,0,1-3.07.83c-2.2,0-3.5.77-4.26,2.57-2,4.67-2.81,5.84-5.54,7.77-2.07,1.47-2.84,3.2-3.07,7l-.2,3.13-1.1.34a3.62,3.62,0,0,0-1.8,1.33c-.4.57-1.14,1.47-1.64,2A15.3,15.3,0,0,0,82,116.16c-1.5,4.14-2.27,5.47-4,7.1-1.33,1.24-1.63,1.77-1.83,3.07a7.57,7.57,0,0,0,2.37,6.47A4.17,4.17,0,0,1,80,135a17.53,17.53,0,0,0,.2,2c.17,1,.07,1.37-.83,2.27s-1,1.27-.87,1.8a7.52,7.52,0,0,0,2.87,3c.4.14.4.27,0,1a5.18,5.18,0,0,0-.23,3c.23,2,.16,2.3-.67,3.74-1,1.7-1.43,3.53-1.77,7.64l-.2,2.66-1.6,1c-2.47,1.6-3.23,2.47-3.23,3.53,0,1.27.5,2.2,1.86,3.47,1.1,1,1.14,1.14,1.14,3.5a23.25,23.25,0,0,1-.34,3.91c-.66,2.8,1.07,5.73,3.31,5.73a4.42,4.42,0,0,1,2.06.77c1,.64,1.17,1,1.47,2.7s.44,2,1.4,2.37,1.3,1,2.24,2.9a23.3,23.3,0,0,1,1.27,3.11c.06.46.4.7,1.06.76a6.54,6.54,0,0,1,2.77,1.94c1.8,1.8,1.8,1.83,1.44,3-.67,2-.2,3.2,2,5.37a20,20,0,0,1,2.74,3.2,2.74,2.74,0,0,0,1.7,1.5,1.81,1.81,0,0,1,1.4,1.34c.53,1.63,3.3,4.23,6.34,5.93,3.2,1.81,4.93,3.47,5.53,5.31.4,1.2.57,1.33,1.67,1.43.9.07,1.37.34,1.63.84a1.85,1.85,0,0,0,2,1.23,4.59,4.59,0,0,1,1.94.67,4.47,4.47,0,0,0,1.6.66,24,24,0,0,0,5.57-2.76,7.38,7.38,0,0,1,3.3-1,6.69,6.69,0,0,0,3.1-.93c1.24-.94,3.3-1.1,7.87-.67,3.84.37,6.18,1.17,7.71,2.64l.9.83,1-.73a7.22,7.22,0,0,1,2.61-1,8,8,0,0,0,2.66-1.17,9.15,9.15,0,0,1,2.67-1.33,7.46,7.46,0,0,0,2.27-1.17c.53-.5,1.54-.8,3.67-1.06,2.7-.37,3-.47,3.14-1.24s.5-.87,2.33-1.2c2.67-.53,12.71-.6,14.44-.1.87.23,1.24.5,1.24,1s.46.9,1.3,1.3c1.3.67,3,2.4,3.07,3.13,0,.24.06,1.2.1,2.21,0,1.36.2,1.9.7,2.26,1.9,1.34,3.27,2.1,3.73,2.1a11.38,11.38,0,0,0,2.67-1.16c2-1.1,2.27-1.17,5.41-1.17h3.3l2,2.2c3,3.27,3.84,5.2,4,9.14a17.27,17.27,0,0,1-.7,6.37,47.26,47.26,0,0,0-1.07,5.14,27.44,27.44,0,0,1-1.06,4.5,23.33,23.33,0,0,0-1,4.67c-.2,2.57.5,4.57,2.73,7.84.77,1.1,1.8,2.7,2.3,3.57a24.81,24.81,0,0,0,2.57,3.5,9.29,9.29,0,0,1,1.8,2.67c.1.43.24,1.13.34,1.6.13.63.46.9,1.16,1.07a1.24,1.24,0,0,1,1.2,1.07c.2,1,.17.93,1.91,3.46a8.64,8.64,0,0,1,1.46,3.24c.14,1,.4,1.47,1,1.73,1,.47,1,.74,0,1.41s-1.07,1.36.5,3.66a7.88,7.88,0,0,1,1.33,2.74,17.71,17.71,0,0,0,1.5,3.84c1.7,3.46,1.8,4.23.8,5.83-1.1,1.84-1,3.57.6,7,.74,1.64,1.7,4,2.1,5.17,1.24,3.47.57,5.24-2.7,7.18-1.4.83-2.7,3.33-2.9,5.6a5.22,5.22,0,0,1-.67,2.33c-.33.37-.66,1.87-.93,4.07-.33,2.94-.53,3.71-1.4,5a8.55,8.55,0,0,0-1.2,3c-1.07,9.2-1.27,14-.77,16a8.52,8.52,0,0,0,1.87,2.5,7.88,7.88,0,0,1,2.2,3.37,8.21,8.21,0,0,0,1.33,2.66,13.74,13.74,0,0,1,2.34,5.68c.4,2.86,1.23,4.67,3.5,7.87,2.54,3.53,2.87,4.47,2.37,6.37s-.43,4.1.5,7.14a11.72,11.72,0,0,1,.67,5.3,8.77,8.77,0,0,0,.46,4.4,12.12,12.12,0,0,1,.67,3,31,31,0,0,0,1.74,8.31c1.86,3.4,2.86,4.83,3.77,5.33,1.4.77,3.26,5.37,3.2,7.94,0,2.1.86,4.51,2,5.07a5.78,5.78,0,0,1,1.56,2.1,18.66,18.66,0,0,0,1.64,2.87,4.38,4.38,0,0,1,.8,3c0,2.31-.2,2.64-1.67,2.77-.8.07-1.2.3-1.27.7a5.21,5.21,0,0,0,1.47,4.21c1.27,1.43,1.37,1.83.6,2.63-.5.5-.5.57.2,1.13a4.68,4.68,0,0,0,2,.81,5.13,5.13,0,0,1,2.87,1.83,6.81,6.81,0,0,0,2.1,1.63,6.59,6.59,0,0,0,2-1,16.74,16.74,0,0,1,7.07-1.87,5.19,5.19,0,0,0,2.27-.87,3.08,3.08,0,0,1,2.2-.67,25.6,25.6,0,0,0,5.64-.13,11.65,11.65,0,0,1,3.84.17c2.23.4,2.27.4,4.73-.7a8.69,8.69,0,0,1,4.14-1.07,3.13,3.13,0,0,0,2.73-.93,3,3,0,0,1,2.47-.9,2.79,2.79,0,0,0,2.4-1c.61-.54,1.44-1.24,1.87-1.54a44.74,44.74,0,0,0,7.07-7.23,3.88,3.88,0,0,1,2.54-2c1.43-.46,1.8-.76,3.7-3.5a103.67,103.67,0,0,0,6.41-9.94c1.06-2,1.6-2.6,2.26-2.77,1.64-.33,1.74-.43,1.74-1.5a8.5,8.5,0,0,1,1.13-3.1c1.24-2.27,2-5.5,2.5-10l.3-3,1.74-1.6a13.79,13.79,0,0,1,6.74-3.54,6.42,6.42,0,0,0,3.5-1.83l1.6-1.44,0-3.13a16.83,16.83,0,0,1,.57-4.61,4.49,4.49,0,0,0-.1-4.4,3.7,3.7,0,0,1-.5-2.4,4.26,4.26,0,0,0-.47-2.57,8.39,8.39,0,0,1-.7-2.6,2.25,2.25,0,0,0-.83-1.8c-1.84-1.6-.6-4.44,2.17-4.94s3.27-.86,3.7-2.33c.33-1.07,1-2,3.07-3.77a43.33,43.33,0,0,0,4.27-4.47,11.34,11.34,0,0,1,6.77-4.4c1.47-.34,2.3-.84,4.47-2.74,2.77-2.4,3-2.8,3.23-4.84.07-.9.6-1.66,2.41-3.56,3-3.14,3.26-3.84,2.86-7a52,52,0,0,1,0-7.77,65.27,65.27,0,0,0,.07-6.57,4.82,4.82,0,0,1,.53-2.83c.87-2,.67-2.87-.93-3.91-3.27-2.1-4.74-4.33-4.74-7.27a8.27,8.27,0,0,0-.63-2.67,17.85,17.85,0,0,1-1-3.93c-.4-2.64-.2-4,.76-5.41s.5-3.57-1.43-5.4c-1.2-1.17-1.3-2.07-.37-3.87.8-1.6,1.64-2.07,3.64-2.13,1.53,0,1.53,0,1.63-1.27.14-1.64-.36-2.5-1.6-2.77s-1.23-.6-.37-1.73a5.37,5.37,0,0,0,.87-2.37c.44-3.54.54-3.77,2-5.27a6.13,6.13,0,0,0,1.46-2,11.6,11.6,0,0,1,2.17-2.7,10.21,10.21,0,0,0,2.17-2.8c0-.67,2.84-4,5.27-6.17a23.15,23.15,0,0,0,3.17-3.71c2.73-4.1,9.77-10.74,14.07-13.31,2.74-1.66,3.44-2.36,4.54-4.67a11.25,11.25,0,0,1,3.64-4.23c3.17-2.7,4.13-4.07,5-7a11,11,0,0,1,2.06-4.1c2.27-2.94,2.74-3.81,3-5.64a14.32,14.32,0,0,1,.9-3.2c.36-.8.76-1.84.9-2.3a51.73,51.73,0,0,1,4.77-8.64c1.93-2.74,2.37-4,2.4-6.87a8.3,8.3,0,0,1,.5-3.17,5.24,5.24,0,0,0,0-4.34,4.89,4.89,0,0,1-.5-1.87c0-1-.83-2.13-1.63-2.13a5.74,5.74,0,0,0-1.67.83c-2.17,1.44-6.37,2.9-7.74,2.7a6.58,6.58,0,0,0-3.07.47,12.12,12.12,0,0,1-3.34.67,3.11,3.11,0,0,0-2.7,1.2l-1.26,1.23-2.71-.2a11.1,11.1,0,0,0-5.8.77c-3.6,1.17-6.07,1.3-6.87.4a8.05,8.05,0,0,1-1.1-2.33c-.74-2.21-1.44-2.87-3.14-2.81-1,0-1.4-.1-1.63-.53-.47-.87.16-1.73,1.23-1.73a2.16,2.16,0,0,0,1.34-.4c.5-.5.53-1.81.06-2.11a2.67,2.67,0,0,1-.33-1.53c0-1.2-.13-1.37-1.1-1.8a4,4,0,0,1-1.84-1.9c-1.5-2.9-2.6-4.41-3.4-4.64-.47-.13-1.47-.43-2.27-.63a2.36,2.36,0,0,1-2-1.77,12.74,12.74,0,0,0-4.6-4.5,19.61,19.61,0,0,1-2.27-1.74,6.26,6.26,0,0,0-2-1.33c-.84,0-1.84-1.7-1.84-3.14a45.54,45.54,0,0,0-2.53-10.77c-1.27-2.9-1.27-2.94-2.5-3.1-.84-.14-1.17-.37-1.31-1a1.45,1.45,0,0,0-1.1-1.07c-2.46-.67-3.3-2.7-3.6-8.64-.17-3.93-.33-4.83-1.23-7.17a38.34,38.34,0,0,0-2.47-5c-1.17-1.87-1.67-2.37-2.74-2.73a5.29,5.29,0,0,1-1.93-1.07,5,5,0,0,1-.93-4.24,5.74,5.74,0,0,0,.33-1.83c0-.77-.17-1-.84-1.2a2,2,0,0,1-1.5-2.07c0-.8-2.5-5.64-3.5-6.74a9.07,9.07,0,0,1-1.27-1.87A14,14,0,0,0,335.2,99c-1.34-1.31-1.37-1.44-1.37-3.57s-.44-3.11-1.54-3.57c-.86-.37-4.3-5.24-5.47-7.74-1.3-2.77-1.63-4.44-1-5.1.17-.17-.43-1.91-1.5-4.24-1-2.17-1.8-4-1.8-4.07s.4-.17.9-.23c.8-.1-.84-.64-6.61-2.17-.3-.1-1,.23-1.53.7a6.68,6.68,0,0,1-1.9,1.07,2.78,2.78,0,0,0-1.6,1.36c-1.2,2-2.44,2.21-6.57,1.1A21.55,21.55,0,0,0,302,71.9a5.12,5.12,0,0,1-2-.87,12.18,12.18,0,0,0-4.3-1.47c-1.64-.33-3.27-.73-3.57-.83s-.7,0-1,.47c-.67,1.06-1.17.86-2.3-1a5.27,5.27,0,0,0-1.57-1.8c-.3-.07-2.3-.24-4.41-.37-4.93-.27-5-.3-5-1.63a2.52,2.52,0,0,0-2.37-2.51,2.23,2.23,0,0,1-1.63-1.2c-.84-1.53-2.27-1.53-4,0a9,9,0,0,1-3.54,1.84c-2.63.76-3,1-3.5,2.5-.3.9-.23,1.43.34,3a12.8,12.8,0,0,1,.66,2.74,4.87,4.87,0,0,1-2.5,3.9c-1.93,1.14-3.1,1.07-5-.33-3.37-2.44-3.53-2.5-5.7-2.5-2,0-3.5-.44-7.67-2.17a6.7,6.7,0,0,1-3.1-4c-.87-2.74-1.44-3.14-5.27-3.41-2.41-.2-2.64-.26-3.67-1.36s-1.5-1.24-3.51-1.6a34,34,0,0,0-3.9-.47c-2.53,0-4-.57-4.73-1.87s-1.11-1.33-1.91-.83c-.33.23-.8.06-1.46-.5a4,4,0,0,0-1.24-.8c-.13,0-.43-.44-.66-1a2.36,2.36,0,0,1,1.66-3.24,2.3,2.3,0,0,0,1.5-1.26,5.45,5.45,0,0,1,1.1-1.54c1.24-1.13,1-2.77-.6-4.33-1.16-1.14-1.33-1.51-1.33-2.77a4.13,4.13,0,0,1,1.2-3c1.14-1.46,1.27-2.23.33-2.23a2.66,2.66,0,0,0-1.2.83l-.8.84-1.66-1.64C210.55,32.64,210,32.57,207.11,35ZM320.87,246.92a.33.33,0,0,1-.33.33.36.36,0,0,1-.34-.33.34.34,0,0,1,.34-.34A.32.32,0,0,1,320.87,246.92Z"/><path class="cls-1" d="M93.79,81.54c-.57.57-.5,1.6.16,1.83.37.14.8-.1,1.34-.76a4.46,4.46,0,0,0,.76-1.24C96.05,81,94.22,81.11,93.79,81.54Z"/><path class="cls-1" d="M73.11,84.38a1.6,1.6,0,0,0-.74.76c-.27.5-.2.57.77.37.6-.13,1.07-.43,1.07-.7C74.21,84.31,73.74,84.11,73.11,84.38Z"/><path class="cls-1" d="M91.78,85.28c-1,1.63-1.16,2.5-.73,3,.63.77,1.6.6,2.5-.37a2.26,2.26,0,0,0,.24-3.23C92.89,83.91,92.52,84,91.78,85.28Z"/><path class="cls-1" d="M79.21,85.48a2.74,2.74,0,0,0-1.13.8c-.41.5-.34.7.46,1.53a3.45,3.45,0,0,0,1.34,1c.6,0,2.1-1.77,2.33-2.77s.2-.9-1-.86A5.86,5.86,0,0,0,79.21,85.48Z"/><path class="cls-1" d="M83.71,88c-.53.63-.13,2,.77,2.6,1.33.84,2.5-1.26,1.37-2.5A1.32,1.32,0,0,0,83.71,88Z"/><path class="cls-1" d="M38.35,157.62a1.43,1.43,0,0,0,1.53,1.24c1.1,0,1.27-.54.4-1.14S38.35,157,38.35,157.62Z"/><path class="cls-1" d="M40.62,164.23c-.67.37-.84,2.43-.27,2.8s2.2-.7,2.47-1.37C43.39,164.23,42.05,163.36,40.62,164.23Z"/><path class="cls-1" d="M205.73,231.74c-1.57.87-1.6,2.67-.07,3a2.47,2.47,0,0,0,1.3,0c.6-.21,1.17-1.57,1.17-2.74C208.13,231.11,207.16,231,205.73,231.74Z"/><path class="cls-1" d="M168.67,273.8c-.44.43.5,1.13,1.5,1.13.77,0,1-.13.87-.6S169.14,273.33,168.67,273.8Z"/><path class="cls-1" d="M365.13,290.15c-.4.4-.26,1,.44,1.83l.63.8,0-.87C366.23,291,365.5,289.78,365.13,290.15Z"/><path class="cls-1" d="M384.24,323.63a.67.67,0,1,0,1.34,0,.67.67,0,0,0-1.34,0Z"/><path class="cls-1" d="M413.8,327.64a6.58,6.58,0,0,0-1.2,1.6,2.54,2.54,0,0,0,.83,1,2.3,2.3,0,0,1,.83,1.13c0,.64-3.26,3.6-4,3.6a1.87,1.87,0,0,0-1.71,2,2.55,2.55,0,0,1-.83,1.7,2.48,2.48,0,0,0-.83,1.77c0,.87-.07.94-1,.74-1.2-.27-2.37.3-2.37,1.13a1.36,1.36,0,0,1-1.57,1.3c-.43-.07-.63.13-.7.73-.16,1.24-.9,1.87-3.23,2.81a24.63,24.63,0,0,0-3.24,1.53,4.58,4.58,0,0,1-1.8.67,3.14,3.14,0,0,0-1.6.7,6.72,6.72,0,0,1-1.8.93c-.77.2-.9.44-1,1.57a3.57,3.57,0,0,1-.9,2.13,10.68,10.68,0,0,0-2.34,5c-.63,2.47-.46,3.4.87,4.9a6.39,6.39,0,0,1,1.17,2,11.5,11.5,0,0,0,.5,1.66,7.38,7.38,0,0,1-.54,5.57,12.31,12.31,0,0,0-1.83,4.07,8.7,8.7,0,0,1-2.17,3.41c-3.2,3.43-3.6,5.67-1.67,9.37a13.75,13.75,0,0,1,1.47,4.87c.7,5.5.93,6.14,3,8.07a10.48,10.48,0,0,0,2.9,2c2.24.64,6.14-.73,9.94-3.46,2.41-1.71,2.61-2.07,3.37-6.47a14,14,0,0,1,1.47-4.47,15.79,15.79,0,0,0,1.5-4.54,15.66,15.66,0,0,1,1.44-4.34,6.45,6.45,0,0,0,1-3.33,3.48,3.48,0,0,1,1.07-2.84c.94-.93,1.57-2.37,2.94-6.54a7.46,7.46,0,0,1,1.33-2.36c1-1.1,1.43-2.71,1.47-5.84a12.39,12.39,0,0,1,2.17-7.44,4.9,4.9,0,0,0,1.16-3.47c0-2.13.2-2.4,1.27-1.7s1.87.37,1.6-.93A10.3,10.3,0,0,1,421,345c.37-1.7.33-2-.33-3.3s-.7-1.9-.67-5.17c.07-3.53,0-3.83-.8-5.27a6.34,6.34,0,0,1-.9-2.27c0-.93-1.7-2.7-2.6-2.7A4,4,0,0,0,413.8,327.64Z"/><path class="cls-1" d="M454.36,373.67a4.45,4.45,0,0,0-1.74,3.17c0,1,1.27.5,2.64-1s1.63-2,.83-2.31C455.46,373.3,455.33,373.3,454.36,373.67Z"/><path class="cls-1" d="M441.85,379.5c-.87.84-.33,1.57,1.07,1.44,1-.1,1.2-.2,1.2-.94s-.2-.86-.87-.93A1.77,1.77,0,0,0,441.85,379.5Z"/></svg>